<?xml version="1.0" encoding="utf-8"?>
<!-- Generator: Adobe Illustrator 17.0.2, SVG Export Plug-In . SVG Version: 6.00 Build 0)  -->
<!DOCTYPE svg PUBLIC "-//W3C//DTD SVG 1.1//EN" "http://www.w3.org/Graphics/SVG/1.1/DTD/svg11.dtd">
<svg version="1.1" id="Calque_1" xmlns="http://www.w3.org/2000/svg" xmlns:xlink="http://www.w3.org/1999/xlink" x="0px" y="0px"
	 width="162.594px" height="78.275px" viewBox="0 0 162.594 78.275" enable-background="new 0 0 162.594 78.275"
	 xml:space="preserve">
<g>
	<path fill="#5FC5C5" d="M113.973,36.007c-0.492,0.903-3.491,2.934-4.252,2.573s0.582-5.733,0.671-7.223
		c0.089-1.49,1.074-6.907-3.894-5.553c-4.969,1.354-3.76,13.408-3.537,14.491c0.225,1.084,0.09,1.128-1.476,3.341
		c-1.566,2.211-4.073,2.708-5.416,1.218c-1.342-1.49,2.149-13.678,2.82-16.251c0.672-2.573,4.924-13.091,6.267-17.606
		c1.343-4.514,2.641-10.382-1.208-10.969c-3.849-0.587-5.326,8.215-6.356,12.775c-1.03,4.559-4.789,19.456-4.789,19.456
		s-5.908,6.411-11.369,11.963c-5.459,5.552-2.774-2.935-1.521-6.727c1.253-3.791,3.088-9.299,3.088-9.299l-5.953,0.678
		c0,0-7.071,10.969-9.981,15.303c-2.908,4.334-4.475,4.65-5.504,4.153s0.492-4.334,1.432-6.952c0.939-2.619,2.954-9.164,2.954-9.164
		c0.402-0.903-0.314-0.993-0.314-0.993s-1.701,0.203-2.998,0.384c-1.298,0.18-2.153,0.27-2.551,0.564
		c-0.672,0.497-0.433,4.195-1.701,5.869c-1.595,2.106-6.803,8.893-6.803,8.893l0.626,4.92c1.566-1.804,4.065-4.324,2.357,2.469
		c-1.79,7.118,6.147,1.264,8.116-0.572c2.837-2.644,10.389-13.348,9.847-10.247c-0.269,1.535-3.581,9.751,0.404,10.292
		c3.983,0.542,12.307-7.087,13.695-8.712c1.387-1.625,3.044-4.109,3.088-1.264c-0.448,4.694,3.132,6.41,5.236,6.59
		s7.456-1.091,9.757-4.469c2.551-3.747,3.955-2.507,6.842-2.871c2.865-0.36,4.437-2.275,4.437-2.275S114.466,35.104,113.973,36.007z
		"/>
	<path fill="#5FC5C5" d="M157.306,23.991c1.314-0.004,4.042,0.677,4.521,0.294c0.734-0.587,0.998-2.934,0.544-3.341
		c-0.455-0.406-4.654,0.422-4.177-1.383c0.477-1.806,1.722-6.225,2.491-8.006c1.909-4.424-4.28-10.128-6.43-1.324
		c-0.956,3.913-1.179,8.637-2.79,8.456c-1.612-0.18-3.66-0.707-4.239-0.601c-0.579,0.106-1.319,3.588-1.043,4.032
		c0.277,0.443,3.536,0.271,3.536,0.271s1.761,0.332,1.165,2.353c-1.044,3.543-1.757,5.992-3.373,8.15
		c-1.616,2.157-4.326,4.424-6.655,5.507c-2.327,1.084-2.535-0.059-2.535-1.564c0-1.506,0.119-1.837-0.418-2.318
		c-0.537-0.481,0.208-1.775,0.924-2.377s-1.098-5.018-2.536-6.2c-1.962-1.612-4.277-2.238-6.852-2.375
		c0,0-11.752-0.424-12.781,12.005c-1.121,13.535,7.696,14.326,10.444,13.964c2.745-0.361,8.064-2.066,9.25-5.959
		c0.477-1.564,0.837,1.204,4.655-0.06c3.818-1.264,5.46-3.852,4.625-0.782c-0.835,3.07-1.85,7.945,1.552,8.306
		c4.851,0.515,13.607-4.634,14.053-5.477c0.448-0.843,0.506-4.633-0.239-4.875s-4.775,3.249-7.221,4.273
		c-2.446,1.023-2.35-1.836-0.32-8.758C155.487,29.281,155.994,23.997,157.306,23.991z M133.396,32.622
		c-0.149,0.602,0,0.632-1.553,0.933c-1.774,0.344-2.24,1.964-2.357,3.04c-0.298,2.768,2.208,4.153,1.552,5.296
		c-0.655,1.143-1.821,2.686-3.55,2.799c-3.194,0.211-4.744-3.732-4.775-8.345c-0.023-3.55,2.059-8.211,6.208-8.211
		C131.998,28.134,133.547,32.02,133.396,32.622z"/>
	<path fill="#5FC5C5" d="M45.809,39.122c-0.582-0.542,6.758-31.239,6.758-31.239s-3.766,0.214-6.176,4.424
		c-5.013,8.758-7.967,30.878-7.967,30.878l-6.177,2.076c0,0,3.795-14.803,3.849-18.869c0.042-3.172,0.333-6.231,0-8.848
		l-5.998,2.889c0,0-0.089,6.409-1.253,12.73c-1.163,6.32-3.938,15.619-3.938,15.619S5.841,56.636,1.544,65.755
		c-5.102,8.667,2.686,23.204,19.783,0c6.231-10.438,7.25-12.73,7.25-12.73l7.519-2.618c0,0,1.522-0.632,1.253,1.987
		c-0.269,2.618-1.343,10.744-1.343,10.744l6.266-2.077c0,0,1.03-14.445,3.312-15.528c1.015-0.483,5.64-2.964,5.641-2.964
		l-1.343-5.253C49.882,37.316,46.236,39.519,45.809,39.122z M18.999,60.25c-2.501,3.615-8.841,11.584-12.394,9.836
		c-3.58-1.76,2.53-6.598,4.74-8.167c0,0,3.536-2.212,5.283-3.061C18.171,58.107,21.436,56.725,18.999,60.25z"/>
</g>
</svg>
