<!DOCTYPE svg PUBLIC "-//W3C//DTD SVG 1.1//EN" "http://www.w3.org/Graphics/SVG/1.1/DTD/svg11.dtd">
<svg xmlns="http://www.w3.org/2000/svg" xmlns:xlink="http://www.w3.org/1999/xlink" version="1.1" id="Calque_1" x="0px" y="0px" width="282.006px" height="149.011px" viewBox="0 0 282.006 149.011" enable-background="new 0 0 282.006 149.011" xml:space="preserve">
<path d="M153.681,99.031h5.924l-2.921-5.76L153.681,99.031z" style="fill: rgb(95, 197, 197);"></path>
<path d="M171.45,69.813c1.729-0.113,2.895-1.656,3.55-2.799c0.656-1.143-1.85-2.528-1.552-5.296  c0.117-1.076,0.583-2.696,2.357-3.04c1.553-0.301,1.404-0.331,1.553-0.933c0.15-0.602-1.399-4.488-4.475-4.488  c-4.149,0-6.231,4.661-6.208,8.211C166.706,66.081,168.256,70.024,171.45,69.813z" style="fill: rgb(95, 197, 197);"></path>
<path d="M60.589,83.981c-1.747,0.849-5.283,3.061-5.283,3.061c-2.21,1.569-8.32,6.407-4.74,8.167  c3.553,1.748,9.893-6.221,12.394-9.836C65.397,81.848,62.132,83.23,60.589,83.981z" style="fill: rgb(95, 197, 197);"></path>
<path d="M175.111,90.874h-1.129v5.042h1.069c1.639,0,2.83-0.301,3.536-0.896c0.497-0.415,0.738-0.952,0.738-1.643  C179.325,91.693,177.947,90.874,175.111,90.874z" style="fill: rgb(95, 197, 197);"></path>
<path d="M240.461,21.64C213.878,7.685,178.557,0,141.003,0S68.129,7.685,41.546,21.64  C14.754,35.705,0,54.479,0,74.506c0,20.026,14.754,38.801,41.546,52.864c26.583,13.956,61.904,21.641,99.458,21.641  s72.875-7.685,99.458-21.641c26.792-14.063,41.545-32.838,41.545-52.864C282.006,54.479,267.252,35.705,240.461,21.64z   M160.619,60.693c1.029-12.429,12.781-12.005,12.781-12.005c2.575,0.137,4.89,0.763,6.852,2.375c1.438,1.182,3.252,5.598,2.536,6.2  s-1.461,1.896-0.924,2.377s0.418,0.812,0.418,2.318c0,1.505,0.208,2.648,2.535,1.564c2.329-1.083,5.039-3.35,6.655-5.507  c1.616-2.158,2.329-4.607,3.373-8.15c0.596-2.021-1.165-2.353-1.165-2.353s-3.259,0.172-3.536-0.271  c-0.276-0.444,0.464-3.926,1.043-4.032c0.579-0.106,2.627,0.421,4.239,0.601c1.611,0.181,1.834-4.543,2.79-8.456  c2.15-8.804,8.339-3.1,6.43,1.324c-0.769,1.781-2.014,6.2-2.491,8.006c-0.477,1.805,3.722,0.977,4.177,1.383  c0.454,0.407,0.19,2.754-0.544,3.341c-0.479,0.383-3.207-0.298-4.521-0.294c-1.312,0.006-1.819,5.29-3.849,12.211  c-2.03,6.922-2.126,9.781,0.32,8.758c2.446-1.024,6.476-4.515,7.221-4.273s0.687,4.032,0.239,4.875  c-0.446,0.843-9.202,5.992-14.053,5.477c-3.402-0.361-2.387-5.236-1.552-8.306c0.835-3.07-0.807-0.482-4.625,0.782  c-3.818,1.264-4.178-1.504-4.655,0.06c-1.186,3.893-6.505,5.598-9.25,5.959C168.315,75.019,159.498,74.228,160.619,60.693z   M89.545,70.656c-2.282,1.083-3.312,15.528-3.312,15.528l-6.266,2.077c0,0,1.074-8.126,1.343-10.744  c0.269-2.619-1.253-1.987-1.253-1.987l-7.519,2.618c0,0-1.019,2.292-7.25,12.73c-17.097,23.204-24.885,8.667-19.783,0  c4.297-9.119,23.363-16.973,23.363-16.973s2.775-9.299,3.938-15.619c1.164-6.321,1.253-12.73,1.253-12.73l5.998-2.889  c0.333,2.617,0.042,5.676,0,8.848c-0.054,4.066-3.849,18.869-3.849,18.869l6.177-2.076c0,0,2.954-22.12,7.967-30.878  c2.41-4.21,6.176-4.424,6.176-4.424s-7.34,30.697-6.758,31.239c0.427,0.397,4.073-1.806,4.073-1.806l1.343,5.253  C95.185,67.692,90.56,70.173,89.545,70.656z M116.489,68.624c0.542-3.101-7.01,7.603-9.847,10.247  c-1.969,1.836-9.906,7.69-8.116,0.572c1.708-6.793-0.791-4.273-2.357-2.469l-0.626-4.92c0,0,5.208-6.787,6.803-8.893  c1.268-1.674,1.029-5.372,1.701-5.869c0.398-0.294,1.253-0.384,2.551-0.564c1.297-0.181,2.998-0.384,2.998-0.384  s0.716,0.09,0.314,0.993c0,0-2.015,6.545-2.954,9.164c-0.94,2.618-2.461,6.455-1.432,6.952c1.029,0.497,2.596,0.181,5.504-4.153  c2.91-4.334,9.981-15.303,9.981-15.303l5.953-0.678c0,0-1.835,5.508-3.088,9.299c-1.253,3.792-3.938,12.279,1.521,6.727  c5.461-5.552,11.369-11.963,11.369-11.963s3.759-14.897,4.789-19.456c1.03-4.56,2.507-13.362,6.356-12.775s2.551,6.455,1.208,10.969  c-1.343,4.515-5.595,15.033-6.267,17.606c-0.671,2.573-4.162,14.761-2.82,16.251c1.343,1.49,3.85,0.993,5.416-1.218  c1.566-2.213,1.701-2.257,1.476-3.341c-0.223-1.083-1.432-13.137,3.537-14.491c4.968-1.354,3.983,4.063,3.894,5.553  c-0.089,1.49-1.432,6.862-0.671,7.223c0.761,0.361,3.76-1.67,4.252-2.573c0.493-0.903,2.014,4.785,2.014,4.785  s-1.572,1.915-4.437,2.275c-2.887,0.364-4.291-0.876-6.842,2.871c-2.301,3.378-7.653,4.649-9.757,4.469  c-2.104-0.18-5.684-1.896-5.236-6.59c-0.044-2.845-1.701-0.361-3.088,1.264c-1.388,1.625-9.712,9.254-13.695,8.712  C112.908,78.375,116.22,70.159,116.489,68.624z M163.285,106.316l-2.01-3.867h-9.305l-2.147,3.867h-4.394h-1.042h-4.126  l-1.984-10.814l-6.237,11.053h-1.553l-5.991-11.06l-2.294,10.822h-5.139l4.522-19.183h3.447l6.298,11.734l6.553-11.734h3.51  l3.744,17.802l9.711-17.849h3.751l0.071,0.133l10.124,19.097H163.285z M234.231,91.089h-5.308v15.227h-5.09V91.089h-4.453h-0.824  h-7.629v3.551h8.131v3.609h-8.131v4.458h8.453v3.609h-13.374h-0.168h-6.601l-8.309-8.153l-0.297,0.232v7.921h-3.681h-1.409h-4.975  l-0.076-0.087l-6.276-7.288h-0.233v7.375h-5.089V87.48h7.063c2.705,0,4.779,0.451,6.165,1.34c0.747,0.474,1.349,1.11,1.786,1.891  c0.439,0.766,0.662,1.588,0.662,2.44c0,1.031-0.298,2.013-0.885,2.919c-0.785,1.2-2.207,2.017-4.229,2.435l6.088,6.344V87.48h5.089  v7.435l8.322-7.435h6.567l-10.266,8.723l10.584,9.954V87.48h12.718h0.824h14.851V91.089z" style="fill: rgb(95, 197, 197);"></path>
</svg>